#!OML:ASF F:\VICON\USERDATA\INSTALL\rory3\rory3.ASF
:FULLY-SPECIFIED
:DEGREES
158
root 11.7804 17.8333 -6.52895 5.26215 -48.0882 -1.15195
lowerback 9.84626 2.01845 1.70468
upperback 0.150515 2.8587 -0.17329
thorax -5.27171 1.35898 -1.54328
lowerneck -19.2501 -4.9427 -11.3215
upperneck 24.3904 -6.07171 9.07444
head 11.8249 -2.70715 4.32231
rclavicle 1.88597e-014 -3.97569e-015
rhumerus -34.5404 -12.9774 -82.5346
rradius 27.8695
rwrist 13.3029
rhand -10.0204 9.8008
rfingers 7.12502
rthumb 15.964 -19.5613
lclavicle 1.88597e-014 -3.97569e-015
lhumerus -38.9958 9.11499 80.0322
lradius 28.1623
lwrist -12.57
lhand -12.7668 26.2003
lfingers 7.12502
lthumb 13.318 55.7548
rfemur 13.4344 2.58522 25.4433
rtibia 16.2475
rfoot -9.1378 5.71159
rtoes -2.84064
lfemur -25.5596 -2.79893 -19.5294
ltibia 16.7201
lfoot -5.22096 -3.70471
ltoes -12.3229
159
root 11.6928 17.8464 -6.42997 5.16927 -47.8359 -0.998064
lowerback 9.6788 1.98113 1.65322
upperback 0.209618 2.79802 -0.201578
thorax -5.11889 1.33273 -1.52678
lowerneck -19.3138 -5.02408 -11.482
upperneck 24.3974 -6.17361 9.22869
head 11.8649 -2.7473 4.39196
rclavicle -5.13734e-014 1.0138e-014
rhumerus -34.6157 -13.0568 -82.4862
rradius 28.0772
rwrist 13.0785
rhand -10.1171 9.77673
rfingers 7.12502
rthumb 15.8709 -19.5928
lclavicle -5.13734e-014 1.0138e-014
lhumerus -38.7069 8.60931 80.3463
lradius 28.0827
lwrist -12.1467
lhand -12.6376 25.9019
lfingers 7.12502
lthumb 13.4426 55.4481
rfemur 13.1822 2.59414 25.3721
rtibia 17.3485
rfoot -8.23843 5.75237
rtoes -2.33705
lfemur -25.1951 -2.43467 -19.8239
ltibia 16.7948
lfoot -5.16666 -4.43837
ltoes -12.3687
160
root 11.6037 17.8597 -6.3311 5.02561 -47.561 -0.921567
lowerback 9.82014 1.86186 1.5299
upperback 0.161568 2.6301 -0.175521
thorax -5.26138 1.25103 -1.41458
lowerneck -19.2371 -4.99797 -11.4377
upperneck 24.3774 -6.13349 9.1423
head 11.832 -2.73768 4.3576
rclavicle -2.69974e-014 5.2181e-015
rhumerus -34.8248 -13.2647 -82.3546
rradius 28.1757
rwrist 13.2442
rhand -10.3351 9.72698
rfingers 7.12502
rthumb 15.661 -19.6592
lclavicle -2.69974e-014 5.2181e-015
lhumerus -38.6916 8.36529 80.4665
lradius 28.1445
lwrist -11.8017
lhand -12.6472 26.0918
lfingers 7.12502
lthumb 13.4332 55.6387
rfemur 12.9979 2.5862 25.3895
rtibia 18.5099
rfoot -7.20593 5.72004
rtoes -2.70979
lfemur -24.7427 -2.16276 -20.0302
ltibia 16.8944
lfoot -5.0921 -5.00253
ltoes -10.8346
161
root 11.5095 17.8772 -6.22469 4.83614 -47.3797 -0.850631
lowerback 9.81675 1.78751 1.45375
upperback 0.2037 2.52218 -0.169165
thorax -5.22238 1.20046 -1.34912
lowerneck -19.1983 -4.98539 -11.3351
upperneck 24.3596 -6.11468 9.01374
head 11.8066 -2.73615 4.29336
rclavicle 1.00945e-013 -1.31695e-014
rhumerus -34.9981 -13.1598 -82.3842
rradius 28.4266
rwrist 12.8755
rhand -10.3347 9.56947
rfingers 7.12502
rthumb 15.6613 -19.8167
lclavicle 1.00945e-013 -1.31695e-014
lhumerus -38.6048 8.25922 80.5048
lradius 28.2677
lwrist -11.6777
lhand -12.7299 26.1644
lfingers 7.12502
lthumb 13.3536 55.7165
rfemur 12.8152 2.47806 25.3323
rtibia 19.7349
rfoot -6.13826 5.73318
rtoes -3.01259
lfemur -24.193 -1.93863 -20.2041
ltibia 16.9839
lfoot -4.95914 -5.42947
ltoes -7.85316
162
root 11.4134 17.8925 -6.11378 4.53751 -47.3129 -0.59245
lowerback 9.58605 1.7977 1.38702
upperback 0.378735 2.51537 -0.300364
thorax -4.90666 1.20194 -1.43416
lowerneck -19.2093 -5.06743 -11.2796
upperneck 24.1515 -6.25043 9.08031
head 11.7461 -2.78082 4.28076
rclavicle 1.58966e-014 -2.08724e-015
rhumerus -35.0156 -12.9275 -82.6177
rradius 28.8326
rwrist 12.0992
rhand -10.2532 9.48424
rfingers 7.12502
rthumb 15.7398 -19.8957
lclavicle 1.58966e-014 -2.08724e-015
lhumerus -38.2547 8.03434 80.5281
lradius 28.3835
lwrist -11.8056
lhand -12.5078 26.0479
lfingers 7.12502
lthumb 13.5677 55.5858
rfemur 12.5652 2.44894 25.0813
rtibia 21.0461
rfoot -4.96853 5.89331
rtoes -2.25245
lfemur -23.6095 -1.63492 -20.5182
ltibia 17.0413
lfoot -4.82252 -5.99178
ltoes -6.82593
163
root 11.3156 17.9059 -6.00404 4.32035 -47.3421 -0.413948
lowerback 9.68405 1.79728 1.0073
upperback 0.231714 2.48167 -0.200691
thorax -5.13724 1.19241 -1.12025
lowerneck -18.8838 -4.99594 -11.2177
upperneck 24.127 -6.14451 8.8661
head 11.6492 -2.76237 4.20726
rclavicle 2.00276e-014 -4.87022e-015
rhumerus -35.5119 -12.2954 -82.5843
rradius 29.224
rwrist 11.5406
rhand -10.1121 9.43686
rfingers 7.12502
rthumb 15.8757 -19.9323
lclavicle 2.00276e-014 -4.87022e-015
lhumerus -38.5751 7.92176 80.7191
lradius 28.5976
lwrist -11.7914
lhand -12.3259 26.156
lfingers 7.12502
lthumb 13.7429 55.6822
rfemur 12.2031 2.40757 24.8178
rtibia 22.5043
rfoot -3.70891 6.25812
rtoes -1.23481
lfemur -22.9956 -1.27203 -20.7473
ltibia 16.9853
lfoot -4.80199 -6.75504
ltoes -7.24339
164
root 11.2195 17.9212 -5.89603 4.17463 -47.4376 -0.310545
lowerback 9.4286 1.93038 1.06301
upperback 0.389857 2.65245 -0.350862
thorax -4.81457 1.27772 -1.31665
lowerneck -19.0195 -5.11851 -11.1077
upperneck 24.1442 -6.36511 8.95193
head 11.7085 -2.83722 4.18412
rclavicle 1.45361e-015 -6.11263e-015
rhumerus -35.4842 -12.6404 -82.6618
rradius 29.4401
rwrist 11.3416
rhand -10.0827 9.75437
rfingers 7.12502
rthumb 15.904 -19.6126
lclavicle 1.45361e-015 -6.11263e-015
lhumerus -38.1702 7.33541 80.8898
lradius 28.7253
lwrist -11.7364
lhand -12.6358 25.9954
lfingers 7.12502
lthumb 13.4442 55.5415
rfemur 11.682 2.30878 24.5527
rtibia 24.123
rfoot -2.28632 6.64572
rtoes 0.462252
lfemur -22.3349 -0.714972 -20.951
ltibia 16.7855
lfoot -4.82461 -7.5769
ltoes -8.54012
165
root 11.1236 17.9339 -5.78822 3.86726 -47.5435 -0.0200218
lowerback 9.3662 2.00305 0.810763
upperback 0.427419 2.71733 -0.426598
thorax -4.74655 1.31532 -1.25893
lowerneck -19.1373 -5.15423 -11.001
upperneck 24.283 -6.44446 8.93571
head 11.79 -2.86317 4.14916
rclavicle 3.33523e-014 -5.81445e-015
rhumerus -35.5127 -12.7463 -82.6651
rradius 29.5315
rwrist 11.3223
rhand -10.2524 10.0189
rfingers 7.12502
rthumb 15.7405 -19.361
lclavicle 3.33523e-014 -5.81445e-015
lhumerus -38.0453 6.80424 81.0901
lradius 29.038
lwrist -11.3001
lhand -12.8039 26.1241
lfingers 7.12502
lthumb 13.2822 55.6808
rfemur 11.0621 2.21819 24.1703
rtibia 25.8715
rfoot -0.621256 6.91505
rtoes 2.71327
lfemur -21.6025 -0.166443 -21.2833
ltibia 16.5107
lfoot -4.42084 -8.30032
ltoes -9.10169
166
root 11.0265 17.9437 -5.67744 3.47977 -47.5857 0.304997
lowerback 9.45679 1.97196 0.407046
upperback 0.363435 2.63597 -0.38168
thorax -4.88663 1.28315 -0.980737
lowerneck -19.0137 -5.0732 -11.1277
upperneck 24.3385 -6.3237 8.99033
head 11.7788 -2.81868 4.2145
rclavicle -3.9875e-014 5.81445e-015
rhumerus -35.6435 -12.3387 -82.6278
rradius 29.5855
rwrist 11.3556
rhand -10.136 10.2677
rfingers 7.12502
rthumb 15.8526 -19.1033
lclavicle -3.9875e-014 5.81445e-015
lhumerus -38.1556 6.73341 81.2196
lradius 29.2427
lwrist -11.0761
lhand -12.5439 26.0541
lfingers 7.12502
lthumb 13.5328 55.5944
rfemur 10.4374 2.13127 23.7897
rtibia 27.7118
rfoot 1.18698 7.23402
rtoes 4.02991
lfemur -20.8028 0.156267 -21.6065
ltibia 16.2443
lfoot -4.25813 -8.91678
ltoes -9.72555
167
root 10.9331 17.9537 -5.56758 3.12204 -47.5319 0.634092
lowerback 9.34341 1.9208 0.189153
upperback 0.43678 2.54159 -0.429141
thorax -4.75541 1.24188 -0.889064
lowerneck -18.9884 -5.02175 -11.2025
upperneck 24.3145 -6.26004 9.10331
head 11.7636 -2.78406 4.28093
rclavicle -4.54223e-014 -1.44119e-015
rhumerus -35.6371 -11.7676 -82.8139
rradius 29.82
rwrist 11.144
rhand -9.94932 10.3684
rfingers 7.12502
rthumb 16.0325 -18.9882
lclavicle -4.54223e-014 -1.44119e-015
lhumerus -37.9628 6.59972 81.2926
lradius 29.3636
lwrist -11.0939
lhand -12.7356 25.4327
lfingers 7.12502
lthumb 13.348 54.9852
rfemur 9.65994 1.94536 23.3733
rtibia 29.6835
rfoot 3.09093 7.66243
rtoes 4.59599
lfemur -20.0258 0.345214 -21.9359
ltibia 15.9179
lfoot -4.51139 -9.46548
ltoes -9.85179
168
root 10.8494 17.965 -5.46003 2.84883 -47.4925 0.896517
lowerback 9.51129 1.87637 0.029591
upperback 0.328875 2.46389 -0.462524
thorax -4.9687 1.20532 -0.833048
lowerneck -18.9644 -4.95412 -11.1535
upperneck 24.4926 -6.18503 9.05848
head 11.8143 -2.7544 4.27308
rclavicle -1.27477e-013 1.73937e-015
rhumerus -35.8249 -11.3111 -82.8749
rradius 30.0222
rwrist 10.9814
rhand -9.85238 10.3608
rfingers 7.12502
rthumb 16.1258 -18.9883
lclavicle -1.27477e-013 1.73937e-015
lhumerus -38.0238 6.34587 81.4227
lradius 29.629
lwrist -10.8257
lhand -13.1088 25.6947
lfingers 7.12502
lthumb 12.9884 55.2704
rfemur 8.64294 1.60849 22.9007
rtibia 31.7952
rfoot 5.1975 8.19292
rtoes 4.79679
lfemur -19.283 0.535973 -22.2511
ltibia 15.5361
lfoot -4.74548 -9.91122
ltoes -9.51604
169
root 10.7713 17.9625 -5.35395 2.54917 -47.5025 1.09195
lowerback 9.5421 1.89069 0.0854213
upperback 0.457317 2.48215 -0.569434
thorax -4.84425 1.21228 -0.975896
lowerneck -19.1559 -5.0327 -11.0955
upperneck 24.5267 -6.27921 9.00149
head 11.8732 -2.7929 4.225
rclavicle -1.02821e-013 2.10215e-014
rhumerus -35.5474 -11.4388 -82.8844
rradius 30.0858
rwrist 11.2468
rhand -9.60285 10.6541
rfingers 7.12502
rthumb 16.3661 -18.6754
lclavicle -1.02821e-013 2.10215e-014
lhumerus -37.7094 5.99751 81.576
lradius 29.9736
lwrist -10.3025
lhand -12.6201 25.897
lfingers 7.12502
lthumb 13.4594 55.4422
rfemur 7.6054 1.22766 22.4463
rtibia 34.0092
rfoot 7.25255 8.73274
rtoes 4.33444
lfemur -18.4682 0.705711 -22.4544
ltibia 15.1966
lfoot -4.33442 -10.4464
ltoes -5.41054
170
root 10.6874 17.9605 -5.24951 2.10263 -47.5197 1.48093
lowerback 9.7175 1.88574 -0.145506
upperback 0.424626 2.44616 -0.626931
thorax -4.98448 1.19793 -0.908834
lowerneck -19.1855 -5.05805 -11.0806
upperneck 24.6585 -6.29556 8.8889
head 11.9274 -2.81338 4.17959
rclavicle -7.16246e-014 -1.04362e-015
rhumerus -35.6239 -11.1476 -82.9158
rradius 30.3506
rwrist 11.3419
rhand -9.20746 11.7099
rfingers 7.12502
rthumb 16.7467 -17.5878
lclavicle -7.16246e-014 -1.04362e-015
lhumerus -37.7867 5.85928 81.6796
lradius 30.4118
lwrist -10.3045
lhand -12.5761 25.8895
lfingers 7.12502
lthumb 13.5018 55.4318
rfemur 6.59362 1.01578 21.8715
rtibia 36.3354
rfoot 9.10967 9.01168
rtoes 5.73137
lfemur -17.5975 1.19303 -22.8436
ltibia 14.7888
lfoot -3.65148 -11.3768
ltoes -0.129915
171
root 10.5947 17.9817 -5.14768 1.492 -47.5492 2.16842
lowerback 9.80007 1.87204 -0.704841
upperback 0.376518 2.36028 -0.705933
thorax -5.10168 1.16696 -0.66973
lowerneck -19.2104 -4.99643 -11.0511
upperneck 24.8237 -6.21499 8.8426
head 11.9836 -2.78186 4.17474
rclavicle -5.67158e-015 -1.61513e-014
rhumerus -35.704 -10.6965 -82.9955
rradius 30.6363
rwrist 11.3584
rhand -9.00454 12.5982
rfingers 7.12502
rthumb 16.9421 -16.6828
lclavicle -5.67158e-015 -1.61513e-014
lhumerus -37.8509 5.71837 81.7667
lradius 30.7474
lwrist -10.7471
lhand -13.6801 25.7469
lfingers 7.12502
lthumb 12.4375 55.3568
rfemur 5.47258 1.00297 21.1292
rtibia 38.7825
rfoot 10.8024 8.95942
rtoes 8.61988
lfemur -16.6804 2.1011 -23.6058
ltibia 14.0647
lfoot -3.84885 -12.4855
ltoes -1.86337
172
root 10.5025 18.0078 -5.04979 0.891047 -47.6111 2.89423
lowerback 9.84333 1.87978 -1.31615
upperback 0.366008 2.29511 -0.803893
thorax -5.15762 1.14772 -0.421557
lowerneck -19.3634 -4.93779 -11.0308
upperneck 24.9772 -6.137 8.85773
head 12.064 -2.74113 4.19374
rclavicle 1.70955e-014 3.97569e-016
rhumerus -35.62 -10.5082 -83.0154
rradius 30.8252
rwrist 11.5251
rhand -9.04751 12.6705
rfingers 7.12502
rthumb 16.9007 -16.6141
lclavicle 1.70955e-014 3.97569e-016
lhumerus -37.7512 5.38605 81.8862
lradius 31.0365
lwrist -10.7087
lhand -14.3698 25.4207
lfingers 7.12502
lthumb 11.7725 55.0698
rfemur 4.17117 1.01643 20.4135
rtibia 41.3321
rfoot 12.2925 9.04647
rtoes 9.35398
lfemur -15.6057 2.20531 -24.2361
ltibia 13.0436
lfoot -3.93277 -12.5997
ltoes -3.39557
